<svg aria-hidden="true" style="position: absolute; width: 0; height: 0; overflow: hidden;" version="1.1" xmlns="http://www.w3.org/2000/svg" xmlns:xlink="http://www.w3.org/1999/xlink">
<defs>
<symbol id="icon-next" viewBox="0 0 21 32">
<path fill="#bfbfbf" style="fill: var(--color1, #bfbfbf)" d="M19.556 14.751l-14.24-14.24c-0.329-0.33-0.769-0.511-1.238-0.511s-0.908 0.182-1.238 0.511l-1.049 1.048c-0.682 0.683-0.682 1.794 0 2.476l11.958 11.958-11.971 11.971c-0.329 0.33-0.511 0.769-0.511 1.238s0.182 0.908 0.511 1.238l1.049 1.048c0.33 0.33 0.769 0.511 1.238 0.511s0.908-0.181 1.238-0.511l14.254-14.253c0.33-0.331 0.512-0.772 0.511-1.241 0.001-0.471-0.18-0.912-0.511-1.243z"></path>
</symbol>
<symbol id="icon-home" viewBox="0 0 32 32">
<path fill="#fff" style="fill: var(--color2, #fff)" d="M29.344 12.447l-12.664-9.081c-0.404-0.282-0.95-0.286-1.359 0l-12.664 9.081c-1.278 0.916-2.666-1.016-1.386-1.933l12.669-9.084c0.003-0.002 0.006-0.004 0.008-0.006 1.223-0.861 2.868-0.871 4.105 0 0.003 0.002 0.006 0.004 0.009 0.006l12.669 9.084c1.283 0.92-0.119 2.842-1.386 1.933z"></path>
<path fill="#fff" style="fill: var(--color2, #fff)" d="M25.282 31.226h-6.899c-0.657 0-1.189-0.533-1.189-1.189v-4.758c0-0.656-0.534-1.189-1.19-1.189s-1.19 0.534-1.19 1.189v4.758c0 0.657-0.533 1.189-1.19 1.189h-6.899c-1.968 0-3.569-1.601-3.569-3.569v-10.67c0-1.157 0.564-2.246 1.508-2.914l9.275-6.695c0.004-0.003 0.008-0.006 0.012-0.008 1.223-0.861 2.867-0.871 4.105 0 0.004 0.003 0.008 0.005 0.012 0.008l9.275 6.695c0.944 0.668 1.508 1.757 1.508 2.914v10.67c0 1.968-1.601 3.569-3.569 3.569z"></path>
</symbol>
<symbol id="icon-lib" viewBox="0 0 37 32">
<path fill="#bfbfbf" style="fill: var(--color1, #bfbfbf)" d="M31.049 10.351c0-2.452-1.987-4.439-4.439-4.439-5.279 0-15.703 0-20.982 0-2.452 0-4.439 1.987-4.439 4.439v16.14c0 2.452 1.987 4.439 4.439 4.439h20.982c2.452 0 4.439-1.987 4.439-4.439v-16.14zM28.628 10.351v16.14c0 1.114-0.904 2.018-2.018 2.018-5.279 0-15.703 0-20.982 0-1.114 0-2.018-0.904-2.018-2.018v-16.14c0-1.114 0.904-2.018 2.018-2.018h20.982c1.114 0 2.018 0.904 2.018 2.018z"></path>
<path fill="#bfbfbf" style="fill: var(--color1, #bfbfbf)" d="M7.18 8.332l0.063 0.002 0.052-0.006c0.232-0.034 1.159-0.231 1.159-1.225v-1.593c0-0.536 0.213-1.048 0.591-1.427 0.379-0.378 0.891-0.591 1.427-0.591h20.982c1.114 0 2.018 0.904 2.018 2.018v16.14c0 0.536-0.213 1.048-0.591 1.427-0.379 0.378-0.891 0.591-1.427 0.591h-1.614c-0.668 0-1.211 0.542-1.211 1.211s0.542 1.21 1.211 1.21h1.614c1.177 0 2.307-0.468 3.139-1.299 0.831-0.833 1.299-1.963 1.299-3.139v-16.14c0-2.452-1.987-4.439-4.439-4.439-5.279 0-15.703 0-20.982 0-1.177 0-2.306 0.468-3.139 1.299-0.831 0.833-1.299 1.963-1.299 3.139v1.614c0 0.647 0.508 1.177 1.148 1.209z"></path>
<path fill="#bfbfbf" style="fill: var(--color1, #bfbfbf)" d="M13.706 18.018c-2.45 0-4.439 1.988-4.439 4.439s1.989 4.439 4.439 4.439 4.439-1.989 4.439-4.439c0-2.45-1.989-4.439-4.439-4.439zM13.706 20.439c1.114 0 2.018 0.904 2.018 2.018s-0.904 2.018-2.018 2.018-2.018-0.904-2.018-2.018c0-1.114 0.904-2.018 2.018-2.018z"></path>
<path fill="#bfbfbf" style="fill: var(--color1, #bfbfbf)" d="M18.137 22.456v-9.037l2.96 1.974c0.555 0.371 1.307 0.22 1.678-0.336s0.22-1.307-0.336-1.679l-4.842-3.228c-0.371-0.247-0.849-0.271-1.243-0.060-0.394 0.21-0.639 0.62-0.639 1.067v11.298c0 0.668 0.542 1.21 1.21 1.21s1.211-0.542 1.211-1.21z"></path>
</symbol>
<symbol id="icon-prev" viewBox="0 0 21 32">
<path fill="#bfbfbf" style="fill: var(--color1, #bfbfbf)" d="M1.777 17.249l14.24 14.24c0.329 0.33 0.769 0.511 1.238 0.511s0.909-0.181 1.238-0.511l1.049-1.048c0.683-0.683 0.683-1.794 0-2.476l-11.958-11.958 11.971-11.971c0.329-0.33 0.511-0.769 0.511-1.238s-0.182-0.908-0.511-1.238l-1.049-1.048c-0.33-0.33-0.769-0.511-1.238-0.511s-0.908 0.182-1.238 0.511l-14.254 14.253c-0.33 0.331-0.511 0.772-0.51 1.241-0.001 0.471 0.18 0.912 0.51 1.243z"></path>
</symbol>
<symbol id="icon-heart" viewBox="0 0 36 32">
<path d="M26.424 0.683c-3.009 0-5.647 1.342-7.628 3.88-0.264 0.339-0.5 0.677-0.709 1.005-0.209-0.328-0.444-0.667-0.709-1.005-1.981-2.539-4.619-3.88-7.628-3.88-5.684 0-9.75 4.76-9.75 10.471 0 6.531 5.352 12.685 17.355 19.956 0.225 0.136 0.478 0.205 0.732 0.205s0.507-0.068 0.732-0.204c12.002-7.271 17.355-13.426 17.355-19.956 0-5.708-4.062-10.471-9.75-10.471zM29.614 19.285c-2.499 2.788-6.275 5.724-11.527 8.96-5.253-3.237-9.029-6.172-11.527-8.96-2.512-2.803-3.733-5.463-3.733-8.132 0-4.112 2.779-7.645 6.924-7.645 2.111 0 3.911 0.918 5.349 2.728 1.15 1.448 1.635 2.942 1.639 2.953 0.184 0.59 0.731 0.992 1.349 0.992s1.165-0.402 1.349-0.992c0.004-0.014 0.475-1.462 1.587-2.888 1.447-1.853 3.264-2.793 5.401-2.793 4.149 0 6.924 3.536 6.924 7.645 0 2.669-1.221 5.328-3.734 8.132z"></path>
</symbol>
<symbol id="icon-compass" viewBox="0 0 30 32">
<path fill="#bfbfbf" style="fill: var(--color1, #bfbfbf)" d="M15.238 31.223c-13.526-0.014-20.33-16.44-10.775-26.013 5.672-5.911 15.878-5.912 21.55 0 9.555 9.574 2.75 26-10.775 26.013zM15.238 3.128c-7.090 0-12.857 5.768-12.857 12.857 0.706 17.057 25.010 17.052 25.714-0 0-7.089-5.768-12.857-12.857-12.857zM15.238 17.176c0.657 0 1.19-0.533 1.19-1.19-0.063-1.579-2.319-1.579-2.381 0 0 0.657 0.533 1.19 1.191 1.19zM8.512 23.902c-0.311 0-0.615-0.122-0.842-0.349-0.316-0.316-0.428-0.781-0.291-1.206l3.274-10.178c0.117-0.365 0.404-0.651 0.769-0.769l10.179-3.274c0.425-0.137 0.89-0.024 1.206 0.291s0.428 0.781 0.291 1.206l-3.274 10.179c-0.009 0.026-0.018 0.052-0.028 0.078-0.208 0.52-0.645 0.66-0.855 0.728l-10.065 3.237c-0.12 0.038-0.242 0.057-0.364 0.057zM12.732 13.479l-2.377 7.389c2.373-0.763 5.991-1.927 7.389-2.377l2.377-7.389-7.389 2.377z"></path>
</symbol>
<symbol id="icon-play" viewBox="0 0 29 32">
<path d="M5.729 1.693c-2.689-1.543-4.87-0.279-4.87 2.82v22.872c0 3.102 2.18 4.364 4.87 2.823l19.991-11.465c2.69-1.543 2.69-4.043 0-5.586l-19.991-11.465z"></path>
</symbol>
<symbol id="icon-star-empty" viewBox="0 0 32 32">
<path d="M32 12.408l-11.056-1.607-4.944-10.018-4.944 10.018-11.056 1.607 8 7.798-1.889 11.011 9.889-5.199 9.889 5.199-1.889-11.011 8-7.798zM16 23.547l-6.983 3.671 1.334-7.776-5.65-5.507 7.808-1.134 3.492-7.075 3.492 7.075 7.807 1.134-5.65 5.507 1.334 7.776-6.983-3.671z"></path>
</symbol>
<symbol id="icon-star-full" viewBox="0 0 32 32">
<path d="M32 12.408l-11.056-1.607-4.944-10.018-4.944 10.018-11.056 1.607 8 7.798-1.889 11.011 9.889-5.199 9.889 5.199-1.889-11.011 8-7.798z"></path>
</symbol>
</defs>
</svg>
